<?xml version="1.0" standalone="no"?>
<!DOCTYPE svg PUBLIC "-//W3C//DTD SVG 20010904//EN"
 "http://www.w3.org/TR/2001/REC-SVG-20010904/DTD/svg10.dtd">
<svg version="1.0" xmlns="http://www.w3.org/2000/svg"
 width="292.000000pt" height="292.000000pt" viewBox="0 0 292.000000 292.000000"
 preserveAspectRatio="xMidYMid meet">
<metadata>
Created by potrace 1.14, written by Peter Selinger 2001-2017
</metadata>
<g transform="translate(0.000000,292.000000) scale(0.100000,-0.100000)"
fill="#000000" stroke="none">
<path d="M1312 2047 c-75 -26 -151 -88 -189 -155 -14 -26 -27 -48 -28 -50 -1
-1 -31 4 -65 12 -236 55 -484 -63 -600 -285 -22 -43 -39 -79 -36 -79 2 0 -2
-19 -8 -42 -31 -106 -11 -272 45 -378 59 -112 178 -200 289 -214 62 -8 615 -9
665 -1 174 27 316 112 396 236 26 42 89 189 89 211 0 4 -18 17 -40 28 -22 11
-40 22 -40 24 0 9 381 196 389 192 5 -3 11 -20 14 -38 5 -27 22 -119 53 -278
3 -14 9 -40 14 -58 11 -41 -5 -50 -49 -28 -16 9 -34 16 -39 16 -4 0 -19 -26
-32 -57 -43 -105 -98 -187 -154 -231 -33 -25 -32 -25 69 -23 255 7 460 203
471 451 7 141 -46 271 -148 366 -94 87 -179 122 -305 128 -92 4 -154 -8 -227
-42 -105 -50 -173 -138 -241 -307 -15 -38 -31 -79 -36 -90 -4 -11 -18 -45 -31
-75 -56 -137 -132 -232 -225 -283 -84 -45 -159 -57 -380 -58 -247 -2 -280 6
-364 90 -73 73 -100 142 -107 268 -3 75 0 105 17 160 41 131 145 243 273 293
86 34 235 35 318 2 83 -33 105 -30 116 18 2 11 6 29 9 41 20 93 137 169 250
164 106 -5 150 -20 248 -82 36 -23 38 -23 27 -3 -21 39 -114 120 -166 146 -74
36 -159 40 -242 11z"/>
</g>
</svg>
